<mxfile host="drawio-plugin" modified="2024-02-10T14:59:28.215Z" agent="5.0 (Windows NT 10.0; Win64; x64) AppleWebKit/537.36 (KHTML, like Gecko) Chrome/111.0.0.0 Safari/537.36" etag="ChOAuKfEfAcCHAmRQoJj" version="20.5.3" type="embed"><diagram name="Seite-1" id="Pi_xdEzxi5FMTnojrJkG"><mxGraphModel dx="1593" dy="437" grid="1" gridSize="10" guides="1" tooltips="1" connect="1" arrows="1" fold="1" page="1" pageScale="1" pageWidth="827" pageHeight="1169" math="0" shadow="0"><root><mxCell id="0"/><mxCell id="1" parent="0"/><mxCell id="YT_TVYH7l_na-poGMvmx-1" value="Krankenhaus" style="swimlane;fontStyle=1;align=center;verticalAlign=top;childLayout=stackLayout;horizontal=1;startSize=26;horizontalStack=0;resizeParent=1;resizeParentMax=0;resizeLast=0;collapsible=1;marginBottom=0;whiteSpace=wrap;html=1;" parent="1" vertex="1"><mxGeometry x="-180" y="42" width="160" height="118" as="geometry"/></mxCell><mxCell id="YT_TVYH7l_na-poGMvmx-2" value="&lt;div&gt;- name: String&lt;/div&gt;&lt;div&gt;&lt;br&gt;&lt;/div&gt;" style="text;strokeColor=none;fillColor=none;align=left;verticalAlign=top;spacingLeft=4;spacingRight=4;overflow=hidden;rotatable=0;points=[[0,0.5],[1,0.5]];portConstraint=eastwest;whiteSpace=wrap;html=1;" parent="YT_TVYH7l_na-poGMvmx-1" vertex="1"><mxGeometry y="26" width="160" height="84" as="geometry"/></mxCell><mxCell id="YT_TVYH7l_na-poGMvmx-3" value="" style="line;strokeWidth=1;fillColor=none;align=left;verticalAlign=middle;spacingTop=-1;spacingLeft=3;spacingRight=3;rotatable=0;labelPosition=right;points=[];portConstraint=eastwest;strokeColor=inherit;" parent="YT_TVYH7l_na-poGMvmx-1" vertex="1"><mxGeometry y="110" width="160" height="8" as="geometry"/></mxCell><mxCell id="YT_TVYH7l_na-poGMvmx-5" value="Ambulanz" style="swimlane;fontStyle=1;align=center;verticalAlign=top;childLayout=stackLayout;horizontal=1;startSize=26;horizontalStack=0;resizeParent=1;resizeParentMax=0;resizeLast=0;collapsible=1;marginBottom=0;whiteSpace=wrap;html=1;" parent="1" vertex="1"><mxGeometry x="270" y="250" width="160" height="60" as="geometry"/></mxCell><mxCell id="YT_TVYH7l_na-poGMvmx-45" style="edgeStyle=orthogonalEdgeStyle;rounded=0;orthogonalLoop=1;jettySize=auto;html=1;endArrow=none;endFill=0;" parent="YT_TVYH7l_na-poGMvmx-5" source="YT_TVYH7l_na-poGMvmx-6" edge="1"><mxGeometry relative="1" as="geometry"><mxPoint x="-110" y="20" as="targetPoint"/><Array as="points"><mxPoint x="-54" y="39"/><mxPoint x="-54" y="41"/><mxPoint x="-109" y="41"/></Array></mxGeometry></mxCell><mxCell id="YT_TVYH7l_na-poGMvmx-6" value="+ öffnungszeit: String" style="text;strokeColor=none;fillColor=none;align=left;verticalAlign=top;spacingLeft=4;spacingRight=4;overflow=hidden;rotatable=0;points=[[0,0.5],[1,0.5]];portConstraint=eastwest;whiteSpace=wrap;html=1;" parent="YT_TVYH7l_na-poGMvmx-5" vertex="1"><mxGeometry y="26" width="160" height="26" as="geometry"/></mxCell><mxCell id="YT_TVYH7l_na-poGMvmx-7" value="" style="line;strokeWidth=1;fillColor=none;align=left;verticalAlign=middle;spacingTop=-1;spacingLeft=3;spacingRight=3;rotatable=0;labelPosition=right;points=[];portConstraint=eastwest;strokeColor=inherit;" parent="YT_TVYH7l_na-poGMvmx-5" vertex="1"><mxGeometry y="52" width="160" height="8" as="geometry"/></mxCell><mxCell id="YT_TVYH7l_na-poGMvmx-9" value="Station" style="swimlane;fontStyle=1;align=center;verticalAlign=top;childLayout=stackLayout;horizontal=1;startSize=26;horizontalStack=0;resizeParent=1;resizeParentMax=0;resizeLast=0;collapsible=1;marginBottom=0;whiteSpace=wrap;html=1;" parent="1" vertex="1"><mxGeometry x="10" y="360" width="160" height="34" as="geometry"/></mxCell><mxCell id="YT_TVYH7l_na-poGMvmx-11" value="" style="line;strokeWidth=1;fillColor=none;align=left;verticalAlign=middle;spacingTop=-1;spacingLeft=3;spacingRight=3;rotatable=0;labelPosition=right;points=[];portConstraint=eastwest;strokeColor=inherit;" parent="YT_TVYH7l_na-poGMvmx-9" vertex="1"><mxGeometry y="26" width="160" height="8" as="geometry"/></mxCell><mxCell id="YT_TVYH7l_na-poGMvmx-13" value="Abteilung" style="swimlane;fontStyle=1;align=center;verticalAlign=top;childLayout=stackLayout;horizontal=1;startSize=26;horizontalStack=0;resizeParent=1;resizeParentMax=0;resizeLast=0;collapsible=1;marginBottom=0;whiteSpace=wrap;html=1;" parent="1" vertex="1"><mxGeometry x="100" y="100" width="250" height="120" as="geometry"/></mxCell><mxCell id="YT_TVYH7l_na-poGMvmx-14" value="+ name: String" style="text;strokeColor=none;fillColor=none;align=left;verticalAlign=top;spacingLeft=4;spacingRight=4;overflow=hidden;rotatable=0;points=[[0,0.5],[1,0.5]];portConstraint=eastwest;whiteSpace=wrap;html=1;" parent="YT_TVYH7l_na-poGMvmx-13" vertex="1"><mxGeometry y="26" width="250" height="26" as="geometry"/></mxCell><mxCell id="YT_TVYH7l_na-poGMvmx-15" value="" style="line;strokeWidth=1;fillColor=none;align=left;verticalAlign=middle;spacingTop=-1;spacingLeft=3;spacingRight=3;rotatable=0;labelPosition=right;points=[];portConstraint=eastwest;strokeColor=inherit;" parent="YT_TVYH7l_na-poGMvmx-13" vertex="1"><mxGeometry y="52" width="250" height="8" as="geometry"/></mxCell><mxCell id="YT_TVYH7l_na-poGMvmx-16" value="&lt;div&gt;+ patientEntlassen(name: String): void&lt;/div&gt;&lt;div&gt;+ patientAufnehmen(name: String): void&lt;br&gt;&lt;/div&gt;" style="text;strokeColor=none;fillColor=none;align=left;verticalAlign=top;spacingLeft=4;spacingRight=4;overflow=hidden;rotatable=0;points=[[0,0.5],[1,0.5]];portConstraint=eastwest;whiteSpace=wrap;html=1;" parent="YT_TVYH7l_na-poGMvmx-13" vertex="1"><mxGeometry y="60" width="250" height="60" as="geometry"/></mxCell><mxCell id="YT_TVYH7l_na-poGMvmx-17" value="Zimmer" style="swimlane;fontStyle=1;align=center;verticalAlign=top;childLayout=stackLayout;horizontal=1;startSize=26;horizontalStack=0;resizeParent=1;resizeParentMax=0;resizeLast=0;collapsible=1;marginBottom=0;whiteSpace=wrap;html=1;" parent="1" vertex="1"><mxGeometry x="-150" y="600" width="160" height="60" as="geometry"/></mxCell><mxCell id="YT_TVYH7l_na-poGMvmx-18" value="+ nummer: String" style="text;strokeColor=none;fillColor=none;align=left;verticalAlign=top;spacingLeft=4;spacingRight=4;overflow=hidden;rotatable=0;points=[[0,0.5],[1,0.5]];portConstraint=eastwest;whiteSpace=wrap;html=1;" parent="YT_TVYH7l_na-poGMvmx-17" vertex="1"><mxGeometry y="26" width="160" height="26" as="geometry"/></mxCell><mxCell id="YT_TVYH7l_na-poGMvmx-19" value="" style="line;strokeWidth=1;fillColor=none;align=left;verticalAlign=middle;spacingTop=-1;spacingLeft=3;spacingRight=3;rotatable=0;labelPosition=right;points=[];portConstraint=eastwest;strokeColor=inherit;" parent="YT_TVYH7l_na-poGMvmx-17" vertex="1"><mxGeometry y="52" width="160" height="8" as="geometry"/></mxCell><mxCell id="YT_TVYH7l_na-poGMvmx-21" value="&lt;div&gt;Bett&lt;/div&gt;" style="swimlane;fontStyle=1;align=center;verticalAlign=top;childLayout=stackLayout;horizontal=1;startSize=26;horizontalStack=0;resizeParent=1;resizeParentMax=0;resizeLast=0;collapsible=1;marginBottom=0;whiteSpace=wrap;html=1;" parent="1" vertex="1"><mxGeometry x="170" y="590" width="160" height="60" as="geometry"/></mxCell><mxCell id="YT_TVYH7l_na-poGMvmx-22" value="+ nummer: String" style="text;strokeColor=none;fillColor=none;align=left;verticalAlign=top;spacingLeft=4;spacingRight=4;overflow=hidden;rotatable=0;points=[[0,0.5],[1,0.5]];portConstraint=eastwest;whiteSpace=wrap;html=1;" parent="YT_TVYH7l_na-poGMvmx-21" vertex="1"><mxGeometry y="26" width="160" height="26" as="geometry"/></mxCell><mxCell id="YT_TVYH7l_na-poGMvmx-23" value="" style="line;strokeWidth=1;fillColor=none;align=left;verticalAlign=middle;spacingTop=-1;spacingLeft=3;spacingRight=3;rotatable=0;labelPosition=right;points=[];portConstraint=eastwest;strokeColor=inherit;" parent="YT_TVYH7l_na-poGMvmx-21" vertex="1"><mxGeometry y="52" width="160" height="8" as="geometry"/></mxCell><mxCell id="YT_TVYH7l_na-poGMvmx-29" value="Patient" style="swimlane;fontStyle=1;align=center;verticalAlign=top;childLayout=stackLayout;horizontal=1;startSize=26;horizontalStack=0;resizeParent=1;resizeParentMax=0;resizeLast=0;collapsible=1;marginBottom=0;whiteSpace=wrap;html=1;" parent="1" vertex="1"><mxGeometry x="570" y="490" width="160" height="220" as="geometry"/></mxCell><mxCell id="YT_TVYH7l_na-poGMvmx-30" value="&lt;div&gt;+ name: String&lt;/div&gt;&lt;div&gt;+ schwerwiegend: boolean&lt;/div&gt;&lt;div&gt;+ geheilt: boolean &lt;br&gt;&lt;/div&gt;&lt;div&gt;+ diagnose: String&lt;br&gt;&lt;/div&gt;" style="text;strokeColor=none;fillColor=none;align=left;verticalAlign=top;spacingLeft=4;spacingRight=4;overflow=hidden;rotatable=0;points=[[0,0.5],[1,0.5]];portConstraint=eastwest;whiteSpace=wrap;html=1;" parent="YT_TVYH7l_na-poGMvmx-29" vertex="1"><mxGeometry y="26" width="160" height="104" as="geometry"/></mxCell><mxCell id="YT_TVYH7l_na-poGMvmx-31" value="" style="line;strokeWidth=1;fillColor=none;align=left;verticalAlign=middle;spacingTop=-1;spacingLeft=3;spacingRight=3;rotatable=0;labelPosition=right;points=[];portConstraint=eastwest;strokeColor=inherit;" parent="YT_TVYH7l_na-poGMvmx-29" vertex="1"><mxGeometry y="130" width="160" height="8" as="geometry"/></mxCell><mxCell id="YT_TVYH7l_na-poGMvmx-32" value="&lt;div&gt;+ untersuchen(): void&lt;/div&gt;&lt;div&gt;+ behandeln(): void&lt;/div&gt;&lt;div&gt;+ pflegen(): void&lt;br&gt;&lt;/div&gt;" style="text;strokeColor=none;fillColor=none;align=left;verticalAlign=top;spacingLeft=4;spacingRight=4;overflow=hidden;rotatable=0;points=[[0,0.5],[1,0.5]];portConstraint=eastwest;whiteSpace=wrap;html=1;" parent="YT_TVYH7l_na-poGMvmx-29" vertex="1"><mxGeometry y="138" width="160" height="82" as="geometry"/></mxCell><mxCell id="YT_TVYH7l_na-poGMvmx-33" style="edgeStyle=orthogonalEdgeStyle;rounded=0;orthogonalLoop=1;jettySize=auto;html=1;entryX=-0.019;entryY=1.115;entryDx=0;entryDy=0;entryPerimeter=0;endArrow=none;endFill=0;" parent="1" source="YT_TVYH7l_na-poGMvmx-38" target="YT_TVYH7l_na-poGMvmx-22" edge="1"><mxGeometry relative="1" as="geometry"/></mxCell><mxCell id="YT_TVYH7l_na-poGMvmx-35" value="1..*" style="text;html=1;align=center;verticalAlign=middle;resizable=0;points=[];autosize=1;strokeColor=none;fillColor=none;" parent="1" vertex="1"><mxGeometry x="120" y="608" width="40" height="30" as="geometry"/></mxCell><mxCell id="YT_TVYH7l_na-poGMvmx-36" value="1" style="text;html=1;align=center;verticalAlign=middle;resizable=0;points=[];autosize=1;strokeColor=none;fillColor=none;" parent="1" vertex="1"><mxGeometry x="15" y="598" width="30" height="30" as="geometry"/></mxCell><mxCell id="YT_TVYH7l_na-poGMvmx-38" value="" style="rhombus;whiteSpace=wrap;html=1;" parent="1" vertex="1"><mxGeometry x="10" y="623" width="40" height="40" as="geometry"/></mxCell><mxCell id="YT_TVYH7l_na-poGMvmx-40" value="" style="endArrow=none;html=1;rounded=0;entryX=0;entryY=0.923;entryDx=0;entryDy=0;entryPerimeter=0;exitX=0.5;exitY=0;exitDx=0;exitDy=0;" parent="1" source="YT_TVYH7l_na-poGMvmx-17" edge="1"><mxGeometry width="50" height="50" relative="1" as="geometry"><mxPoint x="-95" y="480" as="sourcePoint"/><mxPoint x="10" y="409.9979999999998" as="targetPoint"/><Array as="points"><mxPoint x="-70" y="410"/></Array></mxGeometry></mxCell><mxCell id="YT_TVYH7l_na-poGMvmx-41" value="1" style="text;html=1;align=center;verticalAlign=middle;resizable=0;points=[];autosize=1;strokeColor=none;fillColor=none;" parent="1" vertex="1"><mxGeometry x="-45" y="368" width="30" height="30" as="geometry"/></mxCell><mxCell id="YT_TVYH7l_na-poGMvmx-42" value="1..*" style="text;html=1;align=center;verticalAlign=middle;resizable=0;points=[];autosize=1;strokeColor=none;fillColor=none;" parent="1" vertex="1"><mxGeometry x="-120" y="568" width="40" height="30" as="geometry"/></mxCell><mxCell id="YT_TVYH7l_na-poGMvmx-43" value="Extends" style="endArrow=block;endSize=16;endFill=0;html=1;rounded=0;entryX=0.413;entryY=1.154;entryDx=0;entryDy=0;entryPerimeter=0;exitX=0.5;exitY=0;exitDx=0;exitDy=0;" parent="1" source="YT_TVYH7l_na-poGMvmx-9" target="YT_TVYH7l_na-poGMvmx-16" edge="1"><mxGeometry width="160" relative="1" as="geometry"><mxPoint x="120" y="400" as="sourcePoint"/><mxPoint x="280" y="400" as="targetPoint"/><Array as="points"><mxPoint x="90" y="270"/><mxPoint x="166" y="270"/><mxPoint x="200" y="270"/></Array></mxGeometry></mxCell><mxCell id="YT_TVYH7l_na-poGMvmx-46" style="edgeStyle=orthogonalEdgeStyle;rounded=0;orthogonalLoop=1;jettySize=auto;html=1;entryX=0.019;entryY=0.186;entryDx=0;entryDy=0;entryPerimeter=0;endArrow=none;endFill=0;" parent="1" source="YT_TVYH7l_na-poGMvmx-2" target="YT_TVYH7l_na-poGMvmx-13" edge="1"><mxGeometry relative="1" as="geometry"/></mxCell><mxCell id="YT_TVYH7l_na-poGMvmx-47" value="1..*" style="text;html=1;align=center;verticalAlign=middle;resizable=0;points=[];autosize=1;strokeColor=none;fillColor=none;" parent="1" vertex="1"><mxGeometry x="60" y="88" width="40" height="30" as="geometry"/></mxCell><mxCell id="YT_TVYH7l_na-poGMvmx-48" value="1" style="text;html=1;align=center;verticalAlign=middle;resizable=0;points=[];autosize=1;strokeColor=none;fillColor=none;" parent="1" vertex="1"><mxGeometry x="-15" y="78" width="30" height="30" as="geometry"/></mxCell><mxCell id="YT_TVYH7l_na-poGMvmx-49" value="Warteraum" style="swimlane;fontStyle=1;align=center;verticalAlign=top;childLayout=stackLayout;horizontal=1;startSize=26;horizontalStack=0;resizeParent=1;resizeParentMax=0;resizeLast=0;collapsible=1;marginBottom=0;whiteSpace=wrap;html=1;" parent="1" vertex="1"><mxGeometry x="280" y="400" width="180" height="86" as="geometry"/></mxCell><mxCell id="YT_TVYH7l_na-poGMvmx-50" value="+ anzahlVonPlaetzen: int" style="text;strokeColor=none;fillColor=none;align=left;verticalAlign=top;spacingLeft=4;spacingRight=4;overflow=hidden;rotatable=0;points=[[0,0.5],[1,0.5]];portConstraint=eastwest;whiteSpace=wrap;html=1;" parent="YT_TVYH7l_na-poGMvmx-49" vertex="1"><mxGeometry y="26" width="180" height="26" as="geometry"/></mxCell><mxCell id="YT_TVYH7l_na-poGMvmx-51" value="" style="line;strokeWidth=1;fillColor=none;align=left;verticalAlign=middle;spacingTop=-1;spacingLeft=3;spacingRight=3;rotatable=0;labelPosition=right;points=[];portConstraint=eastwest;strokeColor=inherit;" parent="YT_TVYH7l_na-poGMvmx-49" vertex="1"><mxGeometry y="52" width="180" height="8" as="geometry"/></mxCell><mxCell id="YT_TVYH7l_na-poGMvmx-52" value="+ method(type): type" style="text;strokeColor=none;fillColor=none;align=left;verticalAlign=top;spacingLeft=4;spacingRight=4;overflow=hidden;rotatable=0;points=[[0,0.5],[1,0.5]];portConstraint=eastwest;whiteSpace=wrap;html=1;" parent="YT_TVYH7l_na-poGMvmx-49" vertex="1"><mxGeometry y="60" width="180" height="26" as="geometry"/></mxCell><mxCell id="YT_TVYH7l_na-poGMvmx-53" style="edgeStyle=orthogonalEdgeStyle;rounded=0;orthogonalLoop=1;jettySize=auto;html=1;endArrow=none;endFill=0;" parent="1" source="YT_TVYH7l_na-poGMvmx-49" edge="1"><mxGeometry relative="1" as="geometry"><mxPoint x="358" y="320" as="targetPoint"/></mxGeometry></mxCell><mxCell id="YT_TVYH7l_na-poGMvmx-54" value="1" style="text;html=1;align=center;verticalAlign=middle;resizable=0;points=[];autosize=1;strokeColor=none;fillColor=none;" parent="1" vertex="1"><mxGeometry x="325" y="338" width="30" height="30" as="geometry"/></mxCell><mxCell id="YT_TVYH7l_na-poGMvmx-55" value="1" style="text;html=1;align=center;verticalAlign=middle;resizable=0;points=[];autosize=1;strokeColor=none;fillColor=none;" parent="1" vertex="1"><mxGeometry x="315" y="368" width="30" height="30" as="geometry"/></mxCell><mxCell id="YT_TVYH7l_na-poGMvmx-56" style="edgeStyle=orthogonalEdgeStyle;rounded=0;orthogonalLoop=1;jettySize=auto;html=1;entryX=1;entryY=0.5;entryDx=0;entryDy=0;endArrow=none;endFill=0;" parent="1" source="YT_TVYH7l_na-poGMvmx-32" target="YT_TVYH7l_na-poGMvmx-22" edge="1"><mxGeometry relative="1" as="geometry"/></mxCell><mxCell id="YT_TVYH7l_na-poGMvmx-57" style="edgeStyle=orthogonalEdgeStyle;rounded=0;orthogonalLoop=1;jettySize=auto;html=1;entryX=0.542;entryY=1.148;entryDx=0;entryDy=0;entryPerimeter=0;endArrow=none;endFill=0;" parent="1" source="YT_TVYH7l_na-poGMvmx-30" target="YT_TVYH7l_na-poGMvmx-52" edge="1"><mxGeometry relative="1" as="geometry"><Array as="points"><mxPoint x="378" y="568"/><mxPoint x="378" y="490"/></Array></mxGeometry></mxCell></root></mxGraphModel></diagram></mxfile>